

Producer: Soorappa Babu

Director: jacob Vergeese

Cast: Puneet Rajkumar, Parvathi Menon, Avinash, Sadhu Kokila, Shrinivasmurthy and CR Simha

Music: Manikanth Khadri

Scoring - 7/10


Video Details

Format : AVI 
Format/Info : Audio Video Interleave 
File size : 695 MiB 
Duration : 1h 23mn 
Overall bit rate : 1 159 Kbps 
Writing application : Lavf52.32.0 

Format : MPEG-4 Visual 
Format profile : Simple@L1 
Format settings, BVOP : No 
Format settings, QPel : No 
Format settings, GMC : No warppoints 
Format settings, Matrix : Default (H.263) 
Codec ID : DIVX 
Codec ID/Info : Project Mayo 
Codec ID/Hint : DivX 4 
Duration : 1h 23mn 
Bit rate : 1 019 Kbps 
Width : 352 pixels 
Height : 288 pixels 
Display aspect ratio : 1.222 
Frame rate : 23.976 fps 
Standard : PAL 
Color space : YUV 
Chroma subsampling : 4:2:0 
Bit depth : 8 bits 
Scan type : Progressive 
Compression mode : Lossy 
Bits/(Pixel*Frame) : 0.419 
Stream size : 611 MiB (88%) 
Writing library : Lavc52.22.3 

Audio 
ID : 1 
Format : MPEG Audio 
Format version : Version 1 
Format profile : Layer 3 
Mode : Joint stereo 
Mode extension : MS Stereo 
Codec ID : 55 
Codec ID/Hint : MP3 
Duration : 1h 23mn 
Bit rate mode : Constant 
Bit rate : 128 Kbps 
Channel(s) : 2 channels 
Sampling rate : 44.1 KHz 
Compression mode : Lossy 
Stream size : 76.7 MiB (11%) 
Alignment : Aligned on interleaves 
Interleave, duration : 26 ms (0.63 video frame) 
Writing library : LAME3.98.2


Screen-
 
http://savesnap.com/images/pp.jpg
 
http://savesnap.com/images/m1.jpg


 